# xmcd
#
# Track frame offsets: 
#        150
#        12771
#        31002
#        47420
#        57571
#        74597
#        87418
#        98022
#        115719
#        133196
#        145118
#
# Disc length: 2165 seconds
#
# Revision: 0
# Processed by: cddbd v1.5.2PL0 Copyright (c) Steve Scherf et al.
# Submitted via: ExactAudioCopy v0.99pb4
#
DISCID=8f08730b
DTITLE=Karen Peck and New River - Ephesians One
DYEAR=2008
DGENRE=Gospel
TTITLE0=Ephesians Chapter One
TTITLE1=I Want To Thank You
TTITLE2=It's Gonna Have To Be God
TTITLE3=The Cradle And The Grave
TTITLE4=All You Need When You Need It
TTITLE5=Waitin' On The Lord
TTITLE6=Everything You Need
TTITLE7=There's Something Goin' On(When Momma Prays)
TTITLE8=That's When I Knew I Was Home
TTITLE9=Spirit Of Jesus
TTITLE10=Bonus Track: We Shall Wear A Robe and Crown
EXTD=
EXTT0=
EXTT1=
EXTT2=
EXTT3=
EXTT4=
EXTT5=
EXTT6=
EXTT7=
EXTT8=
EXTT9=
EXTT10=
PLAYORDER=
